# xmcd
#
# Track frame offsets:
#	150
#	14428
#	30630
#	42632
#	53686
#	67314
#	81350
#	94793
#	108185
#	122772
#	137867
#	153069
#	165897
#	180998
#	196138
#	211393
#	226038
#	240112
#	253496
#	266000
#
# Disc length: 3759 seconds
#
# Revision: 0
# Processed by: cddbd v1.5.2PL0 Copyright (c) Steve Scherf et al.
# Submitted via: EasyCDDAExtractor 12.1.0.1
#
DISCID=070ead14
DTITLE=Vera Lynn - 100 Hits Legends - CD 4
DYEAR=2010
DGENRE=Country
TTITLE0=Again
TTITLE1=Kiss Me (Besame Mucho)
TTITLE2=Coming Home
TTITLE3=The Silver Wedding Waltz
TTITLE4=Alone
TTITLE5=Two Sleepy People
TTITLE6=So Many Memories
TTITLE7=I'm In Love For The Last Time
TTITLE8=I'll Make Up For Everything
TTITLE9=My Sister And I
TTITLE10=You're In My Arms
TTITLE11=When My Dreamboat Comes Home
TTITLE12=Where In The World
TTITLE13=How Green Was My Valley
TTITLE14=After A While
TTITLE15=I Paid For The Lie That I Told You
TTITLE16=In My Little Red Book
TTITLE17=Memories Live Longer Than Dreams
TTITLE18=No Regrets
TTITLE19=I'm Yours Sincerely
EXTD=
EXTT0=
EXTT1=
EXTT2=
EXTT3=
EXTT4=
EXTT5=
EXTT6=
EXTT7=
EXTT8=
EXTT9=
EXTT10=
EXTT11=
EXTT12=
EXTT13=
EXTT14=
EXTT15=
EXTT16=
EXTT17=
EXTT18=
EXTT19=
PLAYORDER=
